<?xml version="1.0" standalone="no"?>
<!DOCTYPE svg PUBLIC "-//W3C//DTD SVG 1.1//EN" "http://www.w3.org/Graphics/SVG/1.1/DTD/svg11.dtd" >
<svg xmlns="http://www.w3.org/2000/svg">
<metadata></metadata>
<defs>
<font id="gotham_proregular" horiz-adv-x="1024" >
<font-face units-per-em="2048" ascent="1638" descent="-410" />
<missing-glyph horiz-adv-x="614" />
<glyph unicode="&#xfb01;" horiz-adv-x="1292" d="M90 920v139h146v90q0 180 92 272q82 82 227 82q100 0 174 -26v-138q-96 27 -154 27q-182 0 -182 -225v-82h334v-139h-334v-920h-157v920h-146zM932 1290v174h180v-174h-180zM944 0v1059h156v-1059h-156z" />
<glyph unicode="&#xfb02;" horiz-adv-x="1292" d="M90 920v139h146v90q0 180 92 272q82 82 227 82q100 0 174 -26v-138q-96 27 -154 27q-182 0 -182 -225v-82h334v-139h-334v-920h-157v920h-146zM944 0v1495h156v-1495h-156z" />
<glyph unicode="&#xfb03;" horiz-adv-x="2043" d="M90 920v139h146v90q0 180 92 272q82 82 227 82q100 0 174 -26v-138q-96 27 -154 27q-182 0 -182 -225v-82h334v-139h-334v-920h-157v920h-146zM844 920v139h145v90q0 182 90 272q85 82 228 82q103 0 174 -26v-138q-93 27 -152 27q-94 0 -139 -55.5t-45 -169.5v-82h334 v-139h-334v-920h-156v920h-145zM1686 1290v174h178v-174h-178zM1696 0v1059h157v-1059h-157z" />
<glyph unicode="&#xfb04;" horiz-adv-x="2043" d="M90 920v139h146v90q0 180 92 272q82 82 227 82q100 0 174 -26v-138q-96 27 -154 27q-182 0 -182 -225v-82h334v-139h-334v-920h-157v920h-146zM844 920v139h145v90q0 182 90 272q85 82 228 82q103 0 174 -26v-138q-93 27 -152 27q-94 0 -139 -55.5t-45 -169.5v-82h334 v-139h-334v-920h-156v920h-145zM1696 0v1495h157v-1495h-157z" />
<glyph horiz-adv-x="2048" />
<glyph horiz-adv-x="2048" />
<glyph unicode="&#xd;" horiz-adv-x="2048" />
<glyph unicode=" "  horiz-adv-x="614" />
<glyph unicode="&#x09;" horiz-adv-x="614" />
<glyph unicode="&#xa0;" horiz-adv-x="614" />
<glyph unicode="!" horiz-adv-x="555" d="M184 0v215h189v-215h-189zM186 1317v117h185v-117l-49 -911h-89z" />
<glyph unicode="&#x22;" horiz-adv-x="901" d="M133 877l62 557h190v-11l-166 -546h-86zM532 877l64 557h188v-11l-166 -546h-86z" />
<glyph unicode="#" horiz-adv-x="1433" d="M92 362v142h248l76 434h-244v141h266l62 355h143l-59 -355h389l61 355h144l-60 -355h221v-141h-245l-76 -434h242v-142h-265l-63 -362h-144l62 362h-389l-64 -362h-143l61 362h-223zM485 504h389l74 434h-389z" />
<glyph unicode="$" horiz-adv-x="1302" d="M115 215l92 123q98 -88 189.5 -136t201.5 -59v512q-229 54 -329.5 147t-100.5 255q0 158 120.5 263t309.5 114v118h131v-122q203 -18 391 -164l-88 -123q-140 120 -303 147v-504q232 -54 334 -148t102 -253q0 -163 -120.5 -268t-315.5 -117v-201h-131v205 q-265 23 -483 211zM326 1063q0 -46 11 -80t40.5 -65.5t83.5 -56.5t137 -46v481q-126 -4 -199 -69t-73 -164zM729 137q129 6 204 72t75 170q0 96 -58 152.5t-221 95.5v-490z" />
<glyph unicode="%" horiz-adv-x="1708" d="M106 1083q0 151 92 259t236 108q141 0 231.5 -107.5t90.5 -259.5q0 -98 -40 -181t-115.5 -134t-170.5 -51q-143 0 -233.5 107t-90.5 259zM244 1083q0 -107 55 -179.5t135 -72.5q82 0 134.5 72.5t52.5 179.5q0 106 -56 179t-135 73q-83 0 -134.5 -72.5t-51.5 -179.5z M254 0l1053 1434h145l-1051 -1434h-147zM952 350q0 98 40 181.5t115.5 134.5t170.5 51q142 0 231.5 -107.5t89.5 -259.5q0 -151 -90.5 -258.5t-234.5 -107.5q-141 0 -231.5 107t-90.5 259zM1087 350q0 -107 55.5 -179.5t135.5 -72.5q83 0 134.5 72t51.5 180q0 107 -55 179.5 t-135 72.5q-82 0 -134.5 -73t-52.5 -179z" />
<glyph unicode="&#x26;" horiz-adv-x="1425" d="M92 385q0 278 346 414q-76 89 -109.5 161.5t-33.5 157.5q0 144 106 242t273 98q149 0 248.5 -95t99.5 -233q0 -252 -338 -372l328 -334q94 138 172 319l133 -61q-107 -229 -207 -360l250 -256l-123 -95l-225 232q-207 -223 -469 -223q-196 0 -323.5 112t-127.5 293z M256 387q0 -116 84 -193t215 -77q190 0 358 186l-383 395q-138 -51 -206 -132t-68 -179zM451 1114q0 -63 30.5 -119.5t112.5 -144.5q138 46 207 114t69 162q0 86 -57 142.5t-145 56.5q-96 0 -156.5 -59.5t-60.5 -151.5z" />
<glyph unicode="'" horiz-adv-x="501" d="M133 877l62 557h192v-11l-166 -546h-88z" />
<glyph unicode="(" horiz-adv-x="888" d="M139 588q0 279 145.5 499.5t422.5 376.5l67 -104q-237 -152 -356 -341t-119 -431t119 -431t356 -341l-67 -105q-277 156 -422.5 377t-145.5 500z" />
<glyph unicode=")" horiz-adv-x="888" d="M115 -184q237 152 356 341t119 431t-119 431t-356 341l67 104q277 -156 422.5 -376.5t145.5 -499.5t-145.5 -500t-422.5 -377z" />
<glyph unicode="*" horiz-adv-x="880" d="M141 1016l238 108l-238 111l56 94l211 -147l-21 256h107l-21 -256l211 147l55 -94l-237 -111l237 -108l-55 -96l-211 149l21 -256h-107l21 256l-211 -149z" />
<glyph unicode="+" horiz-adv-x="1310" d="M154 647v148h426v422h151v-422h426v-148h-426v-422h-151v422h-426z" />
<glyph unicode="," horiz-adv-x="501" d="M94 -178q71 26 104 63.5t33 94.5v20h-73v215h188v-184q0 -123 -54 -188.5t-173 -92.5z" />
<glyph unicode="-" horiz-adv-x="835" d="M133 532v166h569v-166h-569z" />
<glyph unicode="." horiz-adv-x="501" d="M158 0v215h188v-215h-188z" />
<glyph unicode="/" horiz-adv-x="1040" d="M-43 -262l950 1896h146l-951 -1896h-145z" />
<glyph unicode="0" horiz-adv-x="1464" d="M127 717q0 201 74 369t214.5 270t319.5 102q180 0 318.5 -101t211 -268.5t72.5 -371.5q0 -201 -73.5 -369.5t-213.5 -270.5t-319 -102q-136 0 -250.5 59t-191 160t-119.5 236t-43 287zM295 717q0 -117 31.5 -224.5t87.5 -189.5t139.5 -131t181.5 -49q130 0 230.5 83 t152 217t51.5 294q0 158 -53 292.5t-154.5 218t-230.5 83.5q-130 0 -231 -82.5t-153 -216.5t-52 -295z" />
<glyph unicode="1" horiz-adv-x="733" d="M57 1313l351 121h118v-1434h-159v1266l-271 -84z" />
<glyph unicode="2" horiz-adv-x="1226" d="M98 0v125l520 459q168 148 234 246t66 204q0 123 -84 199t-205 76q-118 0 -206 -59.5t-179 -186.5l-119 86q69 103 136 166.5t162.5 101t217.5 37.5q193 0 318.5 -115.5t125.5 -294.5q0 -78 -20 -143t-69 -132.5t-109.5 -129t-163.5 -152.5l-383 -340h760v-147h-1002z " />
<glyph unicode="3" horiz-adv-x="1255" d="M102 231l117 105q175 -213 420 -213q133 0 223 78.5t90 204.5q0 131 -110 203.5t-291 72.5h-92l-33 96l453 510h-701v146h916v-119l-451 -500q97 -8 180 -35.5t150 -75.5t105 -124t38 -172q0 -189 -138 -311t-341 -122q-173 0 -308 68t-227 188z" />
<glyph unicode="4" horiz-adv-x="1374" d="M88 457l803 977h149v-959h224v-135h-224v-340h-155v340h-756zM283 475h602v739z" />
<glyph unicode="5" horiz-adv-x="1253" d="M109 203l106 116q202 -196 408 -196q153 0 249.5 90.5t96.5 230.5q0 133 -100 217t-257 84q-150 0 -301 -81l-108 71l41 699h825v-150h-684l-31 -459q145 64 283 64q215 0 355.5 -120.5t140.5 -322.5q0 -210 -143.5 -340.5t-368.5 -130.5q-146 0 -277 62t-235 166z" />
<glyph unicode="6" horiz-adv-x="1325" d="M125 680q0 164 41 305.5t116 247t188.5 165.5t250.5 60q123 0 223.5 -41.5t200.5 -122.5l-94 -125q-84 71 -164 106.5t-174 35.5q-191 0 -305.5 -174t-114.5 -453v-6q149 219 407 219q134 0 246 -53.5t181 -156t69 -234.5q0 -206 -147.5 -342t-366.5 -136q-99 0 -182 24 t-153 77.5t-119 134.5t-76 200t-27 269zM322 440q0 -137 102.5 -229t259.5 -92q155 0 250.5 95t95.5 237q0 133 -98 220t-252 87q-156 0 -257 -95t-101 -223z" />
<glyph unicode="7" horiz-adv-x="1220" d="M139 1286v148h973v-121l-651 -1313h-180l647 1286h-789z" />
<glyph unicode="8" horiz-adv-x="1290" d="M106 389q0 123 80 213.5t215 138.5q-245 112 -245 334q0 108 67.5 195.5t179 135.5t242.5 48t242.5 -48t179.5 -137t68 -198q0 -217 -246 -330q135 -50 215 -139.5t80 -214.5q0 -120 -71 -213t-193.5 -143.5t-274.5 -50.5t-274.5 51t-193.5 144.5t-71 213.5zM270 389 q0 -113 102 -190.5t273 -77.5q172 0 273.5 78t101.5 194q0 119 -108 196t-267 77t-267 -78t-108 -199zM317 1061q0 -115 94.5 -188.5t233.5 -73.5t233.5 74t94.5 192q0 106 -94 177t-234 71t-234 -71t-94 -181z" />
<glyph unicode="9" horiz-adv-x="1325" d="M129 971q0 135 64.5 246t183.5 176t268 65q97 0 179 -23.5t152.5 -76.5t119.5 -134t76.5 -201t27.5 -271q0 -225 -74.5 -402t-210.5 -276t-311 -99q-130 0 -235 46.5t-207 130.5l94 124q90 -78 174 -115.5t178 -37.5q125 0 222.5 78t150.5 217t53 315v19 q-144 -230 -405 -230q-221 0 -360.5 126t-139.5 323zM295 975q0 -137 98 -225t254 -88q158 0 257.5 97.5t99.5 229.5q0 138 -103 232t-262 94q-156 0 -250 -99t-94 -241z" />
<glyph unicode=":" horiz-adv-x="522" d="M168 0v215h188v-215h-188zM168 844v215h188v-215h-188z" />
<glyph unicode=";" horiz-adv-x="522" d="M104 -178q71 27 104.5 64.5t33.5 93.5v20h-74v215h188v-184q0 -123 -54 -188.5t-173 -92.5zM168 844v215h188v-215h-188z" />
<glyph unicode="&#x3c;" horiz-adv-x="1310" d="M147 653v135l961 478v-158l-789 -385l789 -387v-160z" />
<glyph unicode="=" horiz-adv-x="1310" d="M184 406v151h942v-151h-942zM184 885v151h942v-151h-942z" />
<glyph unicode="&#x3e;" horiz-adv-x="1310" d="M203 176v158l788 385l-788 387v160l960 -478v-135z" />
<glyph unicode="?" horiz-adv-x="1099" d="M61 1214q95 114 211 176t271 62q205 0 331.5 -115t126.5 -295q0 -93 -33.5 -167.5t-93 -124t-134.5 -80t-165 -43.5l-20 -221h-104l-31 331l10 11q197 4 302.5 81t105.5 211q0 113 -82 190t-217 77q-207 0 -373 -193zM408 0v215h188v-215h-188z" />
<glyph unicode="@" horiz-adv-x="2007" d="M109 561q0 181 70 346t189.5 286t286 193t351.5 72q184 0 350.5 -67t284.5 -178t187.5 -259.5t69.5 -306.5q0 -125 -33 -224t-88 -158t-121.5 -89.5t-139.5 -30.5q-109 0 -183 46.5t-104 125.5q-146 -172 -338 -172q-154 0 -260.5 104t-106.5 269q0 106 41.5 202 t108.5 162.5t152 106t171 39.5q202 0 299 -170l27 141l137 -18l-82 -465q-14 -80 -14 -125q0 -78 45.5 -122t128.5 -44q119 0 203 108.5t84 313.5q0 140 -63 274.5t-170 238t-261 166.5t-325 63q-173 0 -327 -66t-262.5 -177t-171.5 -264t-63 -321q0 -136 39.5 -261 t114.5 -226.5t177 -177t233 -117t276 -41.5q149 0 268 33.5t242 105.5l33 -55q-253 -154 -543 -154q-129 0 -249.5 32.5t-220.5 90.5t-183 140.5t-140 180.5t-88.5 213t-31.5 236zM672 528q0 -119 69.5 -187.5t180.5 -68.5q132 0 233.5 112t101.5 257q0 112 -71 186t-178 74 q-132 0 -234 -109t-102 -264z" />
<glyph unicode="A" horiz-adv-x="1617" d="M80 0l649 1434h160l649 -1434h-174l-168 379h-780l-170 -379h-166zM479 524h654l-326 731z" />
<glyph unicode="B" horiz-adv-x="1478" d="M203 0v1434h610q251 0 375 -127q92 -95 92 -234q0 -128 -64 -208.5t-163 -123.5q307 -92 307 -350q0 -183 -141.5 -287t-378.5 -104h-637zM362 145h482q164 0 258 69.5t94 191.5q0 118 -97.5 181.5t-283.5 63.5h-453v-506zM362 795h424q151 0 240.5 67t89.5 193 q0 108 -83 170.5t-234 62.5h-437v-493z" />
<glyph unicode="C" horiz-adv-x="1511" d="M139 717q0 151 54.5 287t149 236t230.5 159t291 59q181 0 307.5 -58.5t247.5 -172.5l-106 -115q-100 95 -207 146t-244 51q-156 0 -283.5 -78t-199.5 -213.5t-72 -300.5q0 -164 72.5 -299.5t200 -214t282.5 -78.5q140 0 246.5 51t216.5 156l107 -113 q-120 -122 -254.5 -183t-319.5 -61q-203 0 -368.5 98.5t-258 268t-92.5 375.5z" />
<glyph unicode="D" horiz-adv-x="1601" d="M203 0v1434h497q166 0 309 -55t242 -150.5t155 -228t56 -283.5q0 -150 -56 -282t-155 -228t-242 -151.5t-309 -55.5h-497zM365 150h335q133 0 245 43.5t188 119t118.5 180t42.5 224.5q0 118 -42.5 222t-118.5 180.5t-188 120.5t-245 44h-335v-1134z" />
<glyph unicode="E" horiz-adv-x="1372" d="M203 0v1434h1036v-148h-874v-489h782v-148h-782v-502h884v-147h-1046z" />
<glyph unicode="F" horiz-adv-x="1343" d="M203 0v1434h1030v-150h-868v-512h776v-147h-776v-625h-162z" />
<glyph unicode="G" horiz-adv-x="1605" d="M139 717q0 147 52.5 281.5t145 236.5t228.5 162.5t293 60.5q173 0 297 -47t238 -143l-105 -123q-93 80 -193.5 122t-242.5 42q-155 0 -280.5 -80t-195 -215.5t-69.5 -296.5q0 -171 68.5 -306t198 -212.5t300.5 -77.5q118 0 227 40t187 103v357h-436v145h592v-571 q-109 -98 -257 -159t-319 -61q-165 0 -303.5 58t-231 158t-143.5 235.5t-51 290.5z" />
<glyph unicode="H" horiz-adv-x="1556" d="M203 0v1434h162v-637h827v637h162v-1434h-162v645h-827v-645h-162z" />
<glyph unicode="I" horiz-adv-x="595" d="M217 0v1434h162v-1434h-162z" />
<glyph unicode="J" horiz-adv-x="1132" d="M63 233l117 101q70 -105 145 -155t183 -50q126 0 203 89.5t77 254.5v961h164v-959q0 -246 -131 -377q-121 -118 -315 -118q-288 0 -443 253z" />
<glyph unicode="K" horiz-adv-x="1472" d="M203 0v1434h162v-856l823 856h209l-615 -627l641 -807h-202l-551 694l-305 -309v-385h-162z" />
<glyph unicode="L" horiz-adv-x="1267" d="M203 0v1434h162v-1284h806v-150h-968z" />
<glyph unicode="M" horiz-adv-x="1777" d="M203 0v1434h164l522 -783l522 783h164v-1434h-162v1161l-522 -768h-8l-523 766v-1159h-157z" />
<glyph unicode="N" horiz-adv-x="1617" d="M203 0v1434h151l903 -1149v1149h158v-1434h-129l-926 1176v-1176h-157z" />
<glyph unicode="O" horiz-adv-x="1740" d="M139 717q0 147 54 282t148.5 236.5t233 162t297.5 60.5q160 0 297.5 -60t231.5 -161t147.5 -236t53.5 -284q0 -118 -34 -229t-99 -203.5t-153.5 -162t-204 -108.5t-243.5 -39q-159 0 -297 60t-231.5 161.5t-147 236.5t-53.5 284zM307 717q0 -162 72 -297t202 -215 t291 -80t290 79t200.5 214t71.5 299q0 162 -72.5 297t-202.5 215t-291 80t-290 -79t-200 -214t-71 -299z" />
<glyph unicode="P" horiz-adv-x="1368" d="M203 0v1434h536q245 0 391 -123t146 -336q0 -113 -45 -203.5t-122.5 -147.5t-178.5 -87.5t-217 -30.5h-348v-506h-162zM365 653h354q178 0 285.5 87.5t107.5 232.5q0 150 -104 230.5t-281 80.5h-362v-631z" />
<glyph unicode="Q" horiz-adv-x="1740" d="M139 717q0 147 54 282t148.5 236.5t233 162t297.5 60.5q160 0 297.5 -60t231.5 -161t147.5 -236t53.5 -284q0 -135 -44.5 -259t-127.5 -222l190 -158l-111 -121l-188 172q-194 -154 -453 -154q-159 0 -297 60t-231.5 161.5t-147 236.5t-53.5 284zM307 717q0 -162 72 -297 t202 -215t291 -80q190 0 330 108l-266 228l108 121l265 -240q125 160 125 375q0 162 -72.5 297t-202.5 215t-291 80t-290 -79t-200 -214t-71 -299z" />
<glyph unicode="R" horiz-adv-x="1480" d="M203 0v1434h616q264 0 408 -144q110 -110 110 -286q0 -172 -106 -279t-283 -139l441 -586h-199l-416 557h-409v-557h-162zM365 702h440q164 0 266.5 80t102.5 219q0 132 -97 207.5t-270 75.5h-442v-582z" />
<glyph unicode="S" horiz-adv-x="1310" d="M109 209l100 119q116 -105 231 -154t260 -49q144 0 232 69t88 179q0 70 -30 116.5t-112.5 85.5t-230.5 70q-128 28 -215 62t-148.5 83.5t-89.5 116t-28 156.5q0 169 133.5 280t337.5 111q153 0 272.5 -43t231.5 -133l-94 -125q-190 156 -414 156q-137 0 -221 -67 t-84 -169q0 -71 31 -118t116.5 -86.5t241.5 -73.5q243 -53 355 -149t112 -261q0 -183 -137 -294t-353 -111q-329 0 -585 229z" />
<glyph unicode="T" horiz-adv-x="1327" d="M100 1284v150h1127v-150h-482v-1284h-163v1284h-482z" />
<glyph unicode="U" horiz-adv-x="1554" d="M180 600v834h162v-824q0 -231 115.5 -357t322.5 -126q202 0 317 121.5t115 351.5v834h162v-822q0 -307 -161.5 -471t-436.5 -164q-272 0 -434 162.5t-162 460.5z" />
<glyph unicode="V" horiz-adv-x="1536" d="M80 1434h180l510 -1225l512 1225h174l-616 -1434h-144z" />
<glyph unicode="W" horiz-adv-x="2267" d="M92 1434h176l410 -1184l393 1184h133l393 -1184l410 1184h170l-512 -1434h-137l-393 1149l-396 -1149h-135z" />
<glyph unicode="X" horiz-adv-x="1484" d="M94 0l551 731l-530 703h190l440 -586l437 586h188l-530 -701l551 -733h-193l-459 616l-458 -616h-187z" />
<glyph unicode="Y" horiz-adv-x="1466" d="M55 1434h197l483 -717l488 717h188l-596 -865v-569h-164v567z" />
<glyph unicode="Z" horiz-adv-x="1419" d="M137 0v109l928 1179h-897v146h1118v-109l-930 -1180h930v-145h-1149z" />
<glyph unicode="[" horiz-adv-x="899" d="M193 -266v1700h585v-123h-436v-1454h436v-123h-585z" />
<glyph unicode="\" horiz-adv-x="1040" d="M-12 1634h145l950 -1896h-145z" />
<glyph unicode="]" horiz-adv-x="899" d="M121 -143h438v1454h-438v123h586v-1700h-586v123z" />
<glyph unicode="^" d="M133 1010l318 428h122l318 -428h-139l-242 315l-242 -315h-135z" />
<glyph unicode="_" horiz-adv-x="1228" d="M-4 -199h1237v-129h-1237v129z" />
<glyph unicode="`" d="M295 1440l164 76l194 -297h-127z" />
<glyph unicode="a" horiz-adv-x="1185" d="M96 311q0 166 123.5 256t329.5 90q166 0 323 -45v33q0 140 -81.5 213.5t-231.5 73.5q-155 0 -321 -76l-48 129q98 45 187 67.5t198 22.5q226 0 343 -117q110 -110 110 -311v-647h-156v158q-142 -181 -380 -181q-103 0 -191 36.5t-146.5 114t-58.5 183.5zM256 315 q0 -96 77 -153.5t189 -57.5q148 0 250 80.5t102 204.5v98q-153 45 -309 45q-146 0 -227.5 -58.5t-81.5 -158.5z" />
<glyph unicode="b" horiz-adv-x="1359" d="M176 0v1495h158v-649q159 235 405 235q77 0 150.5 -23.5t137.5 -70.5t113 -112t77 -154.5t28 -192.5q0 -126 -43 -231.5t-114 -174.5t-161.5 -107t-187.5 -38q-249 0 -405 226v-203h-158zM328 528q0 -90 32 -167.5t85.5 -129.5t122.5 -82t143 -30q159 0 265.5 111 t106.5 300q0 183 -108.5 296.5t-263.5 113.5q-74 0 -143 -30t-122.5 -83t-85.5 -131t-32 -168z" />
<glyph unicode="c" horiz-adv-x="1169" d="M111 528q0 148 70.5 275t195.5 202.5t276 75.5q140 0 240.5 -50t183.5 -138l-100 -107q-71 74 -148.5 115t-177.5 41q-161 0 -270 -120t-109 -294q0 -172 112.5 -291.5t277.5 -119.5q171 0 319 159l104 -96q-88 -99 -190 -152t-242 -53q-151 0 -276 75t-195.5 202 t-70.5 276z" />
<glyph unicode="d" horiz-adv-x="1359" d="M115 530q0 125 43 231t114.5 175t162 107t186.5 38q250 0 405 -225v639h158v-1495h-158v213q-160 -236 -405 -236q-77 0 -150.5 23.5t-137.5 70.5t-113 112t-77 154.5t-28 192.5zM276 528q0 -182 108.5 -295.5t264.5 -113.5q74 0 143 30t122.5 83t85.5 131.5t32 168.5 q0 177 -115 292.5t-268 115.5q-159 0 -266 -111.5t-107 -300.5z" />
<glyph unicode="e" horiz-adv-x="1212" d="M111 528q0 152 65 278.5t181.5 200.5t260.5 74q152 0 266 -76t171 -202t57 -283q0 -30 -2 -55h-840q17 -162 123 -257t250 -95q192 0 334 149l98 -88q-86 -97 -190 -148t-246 -51q-145 0 -265 68.5t-191.5 196t-71.5 288.5zM270 592h682q-14 154 -101.5 255t-236.5 101 q-135 0 -231 -100.5t-113 -255.5z" />
<glyph unicode="f" horiz-adv-x="751" d="M90 920v139h146v90q0 180 92 272q82 82 227 82q100 0 174 -26v-138q-96 27 -154 27q-182 0 -182 -225v-82h334v-139h-334v-920h-157v920h-146z" />
<glyph unicode="g" horiz-adv-x="1359" d="M115 582q0 112 42 207.5t112 158.5t159 98t184 35q255 0 414 -213v191h158v-875q0 -239 -135 -374q-142 -142 -404 -142q-268 0 -481 148l72 123q187 -136 407 -136q179 0 282 97.5t103 279.5v125q-167 -223 -416 -223q-96 0 -185 35.5t-158.5 98.5t-111.5 158.5 t-42 207.5zM276 582q0 -156 108 -258.5t259 -102.5q101 0 189.5 44.5t144 129t55.5 189.5q0 157 -116 257.5t-273 100.5q-155 0 -261 -99t-106 -261z" />
<glyph unicode="h" horiz-adv-x="1261" d="M176 0v1495h158v-621q126 207 362 207q189 0 297.5 -116t108.5 -308v-657h-158v618q0 149 -77.5 234.5t-215.5 85.5t-227.5 -92t-89.5 -240v-606h-158z" />
<glyph unicode="i" horiz-adv-x="538" d="M180 1290v174h180v-174h-180zM190 0v1059h158v-1059h-158z" />
<glyph unicode="j" horiz-adv-x="538" d="M-8 -195q37 -6 78 -6q56 0 88 35.5t32 106.5v1118h158v-1120q0 -136 -67.5 -204.5t-190.5 -68.5q-54 0 -98 10v129zM180 1290v174h180v-174h-180z" />
<glyph unicode="k" horiz-adv-x="1165" d="M176 0v1495h158v-1032l571 596h197l-445 -455l459 -604h-188l-379 494l-215 -218v-276h-158z" />
<glyph unicode="l" horiz-adv-x="538" d="M190 0v1495h158v-1495h-158z" />
<glyph unicode="m" horiz-adv-x="1947" d="M176 0v1059h158v-178q29 44 58.5 76t71 62t95 46t117.5 16q123 0 208.5 -57.5t131.5 -153.5q137 211 373 211q183 0 288 -114.5t105 -311.5v-655h-158v618q0 153 -72 236.5t-202 83.5q-125 0 -209 -88t-84 -240v-610h-156v623q0 148 -72.5 231.5t-199.5 83.5t-211 -94.5 t-84 -239.5v-604h-158z" />
<glyph unicode="n" horiz-adv-x="1261" d="M176 0v1059h158v-185q126 207 362 207q189 0 297.5 -116t108.5 -308v-657h-158v618q0 149 -77.5 234.5t-215.5 85.5t-227.5 -92t-89.5 -240v-606h-158z" />
<glyph unicode="o" horiz-adv-x="1323" d="M111 528q0 149 71 275.5t198.5 202t283.5 75.5q155 0 282 -75t197.5 -201.5t70.5 -276.5q0 -148 -71.5 -275t-199.5 -202.5t-284 -75.5q-155 0 -281.5 75t-196.5 201.5t-70 276.5zM272 528q0 -171 113 -291t279 -120q169 0 279 119t110 292q0 172 -114 293t-280 121 q-169 0 -278 -120.5t-109 -293.5z" />
<glyph unicode="p" horiz-adv-x="1359" d="M176 -328v1387h158v-213q159 235 405 235q77 0 150.5 -23.5t137.5 -70.5t113 -112t77 -154.5t28 -192.5q0 -126 -43 -231.5t-114 -174.5t-161.5 -107t-187.5 -38q-249 0 -405 226v-531h-158zM328 528q0 -90 32 -167.5t85.5 -129.5t122.5 -82t143 -30q159 0 265.5 111 t106.5 300q0 183 -108.5 296.5t-263.5 113.5q-74 0 -143 -30t-122.5 -83t-85.5 -131t-32 -168z" />
<glyph unicode="q" horiz-adv-x="1359" d="M115 530q0 125 43 231t114.5 175t162 107t186.5 38q250 0 405 -225v203h158v-1387h-158v541q-160 -236 -405 -236q-77 0 -150.5 23.5t-137.5 70.5t-113 112t-77 154.5t-28 192.5zM276 528q0 -182 108.5 -295.5t264.5 -113.5q74 0 143 30t122.5 83t85.5 131.5t32 168.5 q0 177 -115 292.5t-268 115.5q-159 0 -266 -111.5t-107 -300.5z" />
<glyph unicode="r" horiz-adv-x="829" d="M176 0v1059h158v-277q61 138 174 220q105 76 238 75h20v-170h-12q-182 0 -301 -127.5t-119 -357.5v-422h-158z" />
<glyph unicode="s" horiz-adv-x="1019" d="M88 135l80 113q181 -135 367 -135q97 0 158 47t61 125q0 31 -15 56.5t-37 43t-60.5 34.5t-70.5 27.5t-82 24.5q-45 13 -72.5 21.5t-68.5 24t-67 30.5t-56 38.5t-46.5 49.5t-28 62t-11.5 77q0 135 101.5 219t259.5 84q96 0 197.5 -31t183.5 -85l-72 -119 q-159 102 -313 102q-93 0 -149 -44t-56 -114q0 -24 9 -44.5t31.5 -38t41.5 -29.5t58 -26.5t61.5 -21.5t70.5 -22q42 -12 71 -22t67.5 -26t64.5 -32t54 -39.5t44.5 -50t27.5 -61.5t11 -76q0 -147 -107 -232t-270 -85q-114 0 -231.5 41.5t-206.5 113.5z" />
<glyph unicode="t" horiz-adv-x="827" d="M84 920v139h147v319h158v-319h336v-139h-336v-619q0 -176 178 -176q79 0 154 37v-135q-85 -45 -191 -45q-136 0 -217.5 73t-81.5 226v639h-147z" />
<glyph unicode="u" horiz-adv-x="1261" d="M160 401v658h157v-619q0 -149 77 -234t216 -85q137 0 227.5 92.5t90.5 239.5v606h155v-1059h-155v184q-130 -207 -363 -207q-189 0 -297 116t-108 308z" />
<glyph unicode="v" horiz-adv-x="1202" d="M72 1059h174l356 -871l359 871h169l-460 -1059h-140z" />
<glyph unicode="w" horiz-adv-x="1763" d="M86 1059h168l278 -842l285 842h131l287 -842l278 842h164l-372 -1059h-138l-284 823l-287 -823h-139z" />
<glyph unicode="x" horiz-adv-x="1134" d="M59 0l416 539l-399 520h180l313 -410l314 410h176l-402 -516l418 -543h-182l-328 432l-329 -432h-177z" />
<glyph unicode="y" horiz-adv-x="1210" d="M70 1059h174l385 -883l340 883h168l-445 -1094q-67 -162 -148.5 -230.5t-203.5 -68.5q-116 0 -225 53l53 125q74 -39 166 -39q72 0 121.5 44t95.5 155z" />
<glyph unicode="z" horiz-adv-x="1138" d="M115 0v100l702 826h-678v133h893v-101l-704 -825h704v-133h-917z" />
<glyph unicode="{" horiz-adv-x="989" d="M115 526v123h53q133 0 187.5 60.5t54.5 185.5q0 18 -1 79.5t-1 76.5q0 68 10.5 118.5t39.5 98.5t78.5 83t128 64t187.5 49l25 -104q-108 -28 -171 -56t-96.5 -69t-43 -85t-9.5 -120q0 -20 1 -75.5t1 -77.5q0 -123 -54 -189.5t-159 -99.5q109 -36 161 -101t52 -188 q0 -22 -1 -78t-1 -76q0 -60 6 -98.5t24 -75t53.5 -61.5t92.5 -48.5t144 -45.5l-25 -105q-109 20 -187.5 49t-128 64t-78.5 83t-39.5 99t-10.5 119q0 15 1 76.5t1 79.5q0 125 -54.5 185t-187.5 60h-53z" />
<glyph unicode="|" horiz-adv-x="620" d="M244 -262v1896h133v-1896h-133z" />
<glyph unicode="}" horiz-adv-x="989" d="M111 -184q109 28 172 55.5t96.5 68.5t43 85t9.5 120q0 20 -1 76t-1 78q0 123 54 189.5t159 99.5q-109 36 -161 101t-52 188q0 22 1 77.5t1 75.5q0 76 -9.5 120t-42.5 85t-96.5 69t-172.5 56l26 104q109 -20 188 -49t128.5 -64t78 -82.5t39.5 -98.5t11 -119 q0 -15 -1 -76.5t-1 -79.5q0 -126 53.5 -186t185.5 -60h53v-123h-53q-132 0 -185.5 -60t-53.5 -185q0 -18 1 -79.5t1 -76.5q0 -85 -18 -146t-65.5 -114.5t-136.5 -91t-225 -62.5z" />
<glyph unicode="~" horiz-adv-x="968" d="M150 512q31 117 75.5 167t118.5 50q47 0 143.5 -42t130.5 -42q39 0 61 22t46 81l94 -27q-31 -117 -75 -167t-117 -50q-49 0 -146 42t-129 42q-39 0 -60.5 -22t-45.5 -81z" />
<glyph unicode="&#xa1;" horiz-adv-x="555" d="M184 1219v215h189v-215h-189zM186 0v117l47 911h89l49 -911v-117h-185z" />
<glyph unicode="&#xa2;" horiz-adv-x="1189" d="M119 727q0 148 71 275t196.5 202.5t275.5 75.5h26l31 166h133l-37 -184q144 -39 270 -172l-102 -107q-103 106 -201 137l-157 -803q14 -2 43 -2q178 0 325 158l99 -92q-87 -99 -190.5 -153t-242.5 -54q-37 0 -55 2l-37 -188h-133l45 217q-161 58 -260.5 200t-99.5 322z M279 727q0 -128 64 -230.5t169 -150.5l154 793h-9q-160 0 -269 -119.5t-109 -292.5z" />
<glyph unicode="&#xa3;" horiz-adv-x="1318" d="M137 0v94l172 43v467h-172v141h172v222q0 235 129 364q123 123 324 123q151 0 254 -58t184 -163l-125 -98q-67 84 -138.5 127t-176.5 43q-122 0 -201 -76q-88 -85 -88 -262v-222h571v-141h-571v-461h727v-143h-1061z" />
<glyph unicode="&#xa4;" horiz-adv-x="1474" d="M115 485v129h166q-5 41 -5 103q0 67 9 119h-170v127h192q60 221 211 358t352 137q170 0 287 -73t207 -207l-123 -88q-82 115 -167.5 169t-209.5 54q-134 0 -238.5 -96t-152.5 -254h526v-127h-553q-8 -44 -8 -119q0 -37 4 -103h557v-129h-530q46 -167 157 -265.5 t261 -98.5q115 0 199.5 59t164.5 176l117 -82q-94 -142 -209.5 -220.5t-277.5 -78.5q-215 0 -370 139.5t-210 370.5h-186z" />
<glyph unicode="&#xa5;" horiz-adv-x="1404" d="M55 1434h193l457 -701l460 701h185l-523 -762h373v-127h-420v-180h420v-127h-420v-238h-155v238h-420v127h420v180h-420v127h370z" />
<glyph unicode="&#xa6;" horiz-adv-x="454" d="M150 -182v512h153v-512h-153zM150 842v512h153v-512h-153z" />
<glyph unicode="&#xa7;" horiz-adv-x="1294" d="M127 737q0 91 73 152t197 82q-151 77 -151 211q0 123 103 197.5t274 74.5q139 0 259.5 -51.5t209.5 -142.5l-103 -99q-161 158 -371 158q-104 0 -157 -37.5t-53 -101.5q0 -59 73 -101.5t260 -87.5q235 -56 330.5 -121.5t95.5 -173.5q0 -90 -73.5 -151t-196.5 -82 q71 -35 111.5 -89.5t40.5 -121.5q0 -123 -103 -197.5t-274 -74.5q-139 0 -259.5 51.5t-209.5 142.5l102 98q160 -157 371 -157q103 0 157 38t54 101q0 58 -74.5 101.5t-259.5 86.5q-234 56 -330 122t-96 173zM279 750q0 -54 64.5 -97t225.5 -82q125 -32 224 -32 q98 0 160.5 42t62.5 103q0 54 -65 96.5t-226 81.5q-132 33 -223 33q-98 0 -160.5 -42t-62.5 -103z" />
<glyph unicode="&#xa8;" d="M240 1219v194h184v-194h-184zM600 1219v194h184v-194h-184z" />
<glyph unicode="&#xa9;" horiz-adv-x="1699" d="M109 717q0 149 58 285.5t157 236.5t237 159.5t291 59.5t290.5 -59t235.5 -158.5t155.5 -236t57.5 -287.5q0 -149 -58 -285.5t-157 -237t-237 -160t-291 -59.5q-204 0 -374.5 100t-267.5 270.5t-97 371.5zM176 713q0 -184 87.5 -338.5t242 -245t342.5 -90.5 q189 0 344.5 92t243.5 248t88 342q0 184 -87.5 338.5t-242 245t-342.5 90.5q-189 0 -344.5 -92t-243.5 -248t-88 -342zM477 729q0 162 110.5 276.5t274.5 114.5q96 0 163.5 -31.5t131.5 -91.5l-76 -82q-107 103 -221 103t-191 -85t-77 -206q0 -119 78.5 -204t191.5 -85 q67 0 117.5 25.5t107.5 77.5l74 -72q-65 -67 -135.5 -101t-167.5 -34q-162 0 -271.5 115t-109.5 280z" />
<glyph unicode="&#xaa;" horiz-adv-x="798" d="M119 592v96h532v-96h-532zM125 1024q0 90 69.5 140t182.5 50q81 0 164 -22v10q0 70 -42 108t-118 38q-78 0 -176 -45l-31 86q115 51 217 51q118 0 184 -60t66 -178v-354h-100v78q-74 -90 -197 -90q-89 0 -154 49t-65 139zM231 1024q0 -48 37.5 -75t93.5 -27 q74 0 126.5 40t52.5 103v49q-79 23 -156 23q-60 0 -107 -27.5t-47 -85.5z" />
<glyph unicode="&#xab;" horiz-adv-x="1126" d="M98 522v17l332 436l121 -68l-277 -375l277 -378l-121 -70zM555 522v17l332 436l119 -68l-277 -375l277 -378l-119 -70z" />
<glyph unicode="&#xac;" horiz-adv-x="1310" d="M182 883v153h944v-518h-153v365h-791z" />
<glyph unicode="&#xad;" horiz-adv-x="835" d="M133 532v166h569v-166h-569z" />
<glyph unicode="&#xae;" horiz-adv-x="1699" d="M109 717q0 149 58 285.5t157 236.5t237 159.5t291 59.5t290.5 -59t235.5 -158.5t155.5 -236t57.5 -287.5q0 -149 -58 -285.5t-157 -237t-237 -160t-291 -59.5q-204 0 -374.5 100t-267.5 270.5t-97 371.5zM176 713q0 -184 87.5 -338.5t242 -245t342.5 -90.5 q189 0 344.5 92t243.5 248t88 342q0 184 -87.5 338.5t-242 245t-342.5 90.5q-189 0 -344.5 -92t-243.5 -248t-88 -342zM559 358v760h340q145 0 225 -80q62 -59 62 -151q0 -89 -53.5 -145.5t-143.5 -77.5l236 -306h-140l-223 287h-190v-287h-113zM672 745h217q81 0 130.5 37 t49.5 103q0 60 -46.5 95.5t-127.5 35.5h-223v-271z" />
<glyph unicode="&#xaf;" d="M188 1229v137h648v-137h-648z" />
<glyph unicode="&#xb0;" horiz-adv-x="937" d="M147 1135q0 125 97.5 218t224.5 93t224.5 -94t97.5 -222q0 -124 -97.5 -217.5t-224.5 -93.5t-224.5 94.5t-97.5 221.5zM266 1130q0 -82 58.5 -143t144.5 -61t144.5 62t58.5 147q0 82 -58.5 143t-144.5 61t-144.5 -62t-58.5 -147z" />
<glyph unicode="&#xb1;" horiz-adv-x="1310" d="M143 618v148h432v344h158v-344h434v-148h-434v-344h-158v344h-432zM147 29v143h1016v-143h-1016z" />
<glyph unicode="&#xb2;" d="M0 0v1434h1024v-1434h-1024zM100 197l351 520l-351 520v-1040zM166 100h694l-348 523zM166 1331l346 -522l348 522h-694zM571 717l351 -520v1040z" />
<glyph unicode="&#xb3;" d="M0 0v1434h1024v-1434h-1024zM100 197l351 520l-351 520v-1040zM166 100h694l-348 523zM166 1331l346 -522l348 522h-694zM571 717l351 -520v1040z" />
<glyph unicode="&#xb4;" d="M371 1219l194 297l164 -76l-231 -221h-127z" />
<glyph unicode="&#xb5;" horiz-adv-x="1288" d="M176 -328v1387h158v-619q0 -139 83 -231t214 -92q138 0 230.5 95t92.5 241v606h158v-1059h-158v184q-123 -204 -356 -204q-166 0 -264 139v-447h-158z" />
<glyph unicode="&#xb6;" horiz-adv-x="1044" d="M98 989q0 206 149.5 325.5t391.5 119.5h217v-1434h-164v541h-22q-164 0 -292 50.5t-204 153t-76 244.5z" />
<glyph unicode="&#xb7;" horiz-adv-x="501" d="M158 508v215h188v-215h-188z" />
<glyph unicode="&#xb8;" d="M307 -248l185 268h124l-155 -337z" />
<glyph unicode="&#xb9;" d="M0 0v1434h1024v-1434h-1024zM100 197l351 520l-351 520v-1040zM166 100h694l-348 523zM166 1331l346 -522l348 522h-694zM571 717l351 -520v1040z" />
<glyph unicode="&#xba;" horiz-adv-x="798" d="M98 1139q0 126 87 215.5t216 89.5q128 0 213.5 -89t85.5 -216q0 -126 -87 -215.5t-216 -89.5q-128 0 -213.5 89t-85.5 216zM104 592v96h590v-96h-590zM209 1139q0 -86 55 -146.5t137 -60.5q83 0 136 59.5t53 147.5q0 87 -55 147t-138 60t-135.5 -59.5t-52.5 -147.5z" />
<glyph unicode="&#xbb;" horiz-adv-x="1126" d="M121 152l276 376l-276 377l119 70l331 -436v-17l-331 -438zM575 152l277 376l-277 377l121 70l332 -436v-17l-332 -438z" />
<glyph unicode="&#xbc;" d="M0 0v1434h1024v-1434h-1024zM100 197l351 520l-351 520v-1040zM166 100h694l-348 523zM166 1331l346 -522l348 522h-694zM571 717l351 -520v1040z" />
<glyph unicode="&#xbd;" d="M0 0v1434h1024v-1434h-1024zM100 197l351 520l-351 520v-1040zM166 100h694l-348 523zM166 1331l346 -522l348 522h-694zM571 717l351 -520v1040z" />
<glyph unicode="&#xbe;" d="M0 0v1434h1024v-1434h-1024zM100 197l351 520l-351 520v-1040zM166 100h694l-348 523zM166 1331l346 -522l348 522h-694zM571 717l351 -520v1040z" />
<glyph unicode="&#xbf;" horiz-adv-x="1099" d="M98 391q0 93 33.5 168t93 124.5t134.5 80t165 43.5l19 221h104l33 -332l-10 -10q-197 -4 -302.5 -81.5t-105.5 -211.5q0 -113 82 -189.5t217 -76.5q209 0 371 192l104 -100q-95 -114 -209.5 -175.5t-269.5 -61.5q-207 0 -333 114.5t-126 294.5zM504 1219v215h188v-215 h-188z" />
<glyph unicode="&#xc0;" horiz-adv-x="1617" d="M80 0l649 1434h160l649 -1434h-174l-168 379h-780l-170 -379h-166zM479 524h654l-326 731zM512 1782l164 76l194 -297h-127z" />
<glyph unicode="&#xc1;" horiz-adv-x="1617" d="M80 0l649 1434h160l649 -1434h-174l-168 379h-780l-170 -379h-166zM479 524h654l-326 731zM748 1561l194 297l164 -76l-232 -221h-126z" />
<glyph unicode="&#xc2;" horiz-adv-x="1617" d="M80 0l649 1434h160l649 -1434h-174l-168 379h-780l-170 -379h-166zM479 524h654l-326 731zM522 1554l217 269h140l217 -269h-135l-154 138l-154 -138h-131z" />
<glyph unicode="&#xc3;" horiz-adv-x="1617" d="M80 0l649 1434h160l649 -1434h-174l-168 379h-780l-170 -379h-166zM473 1569q31 115 76 165t119 50q49 0 145.5 -41t128.5 -41q39 0 61 21.5t46 78.5l96 -26q-31 -115 -76 -165t-119 -50q-49 0 -145.5 40.5t-128.5 40.5q-39 0 -61 -21.5t-46 -78.5zM479 524h654l-326 731 z" />
<glyph unicode="&#xc4;" horiz-adv-x="1617" d="M80 0l649 1434h160l649 -1434h-174l-168 379h-780l-170 -379h-166zM479 524h654l-326 731zM537 1561v194h184v-194h-184zM897 1561v194h184v-194h-184z" />
<glyph unicode="&#xc5;" horiz-adv-x="1617" d="M80 0l629 1393q-51 27 -82 74.5t-31 105.5q0 83 64 143t149 60q86 0 149.5 -61t63.5 -146q0 -56 -31 -102.5t-82 -73.5l629 -1393h-174l-168 379h-780l-170 -379h-166zM479 524h654l-326 731zM682 1569q0 -51 38 -88t89 -37t89 38t38 91q0 51 -37.5 88t-89.5 37 q-53 0 -90 -37.5t-37 -91.5z" />
<glyph unicode="&#xc6;" horiz-adv-x="2140" d="M35 0l842 1434h1130v-148h-838v-489h746v-148h-746v-502h848v-147h-1011v379h-578l-223 -379h-170zM510 524h496v766h-50z" />
<glyph unicode="&#xc7;" horiz-adv-x="1511" d="M139 717q0 151 54.5 287t149 236t230.5 159t291 59q182 0 311.5 -57.5t247.5 -169.5l-110 -119q-100 95 -207 146t-244 51q-156 0 -283.5 -78t-199.5 -213.5t-72 -300.5q0 -164 72.5 -299.5t200 -214t282.5 -78.5q140 0 246.5 51t216.5 156l107 -105 q-116 -118 -243 -181.5t-298 -70.5l-135 -292l-154 69l158 230q-179 23 -320.5 124.5t-221 261.5t-79.5 349z" />
<glyph unicode="&#xc8;" horiz-adv-x="1372" d="M203 0v1434h1036v-148h-874v-489h782v-148h-782v-502h884v-147h-1046zM465 1782l164 76l194 -297h-127z" />
<glyph unicode="&#xc9;" horiz-adv-x="1372" d="M203 0v1434h1036v-148h-874v-489h782v-148h-782v-502h884v-147h-1046zM608 1561l195 297l164 -76l-232 -221h-127z" />
<glyph unicode="&#xca;" horiz-adv-x="1372" d="M203 0v1434h1036v-148h-874v-489h782v-148h-782v-502h884v-147h-1046zM426 1561l217 268h139l217 -268h-135l-153 137l-154 -137h-131z" />
<glyph unicode="&#xcb;" horiz-adv-x="1372" d="M203 0v1434h1036v-148h-874v-489h782v-148h-782v-502h884v-147h-1046zM440 1561v194h185v-194h-185zM801 1561v194h184v-194h-184z" />
<glyph unicode="&#xcc;" horiz-adv-x="595" d="M4 1782l164 76l194 -297h-126zM217 0v1434h162v-1434h-162z" />
<glyph unicode="&#xcd;" horiz-adv-x="595" d="M217 0v1434h162v-1434h-162zM233 1561l195 297l164 -76l-232 -221h-127z" />
<glyph unicode="&#xce;" horiz-adv-x="595" d="M12 1561l217 268h140l217 -268h-135l-154 137l-154 -137h-131zM217 0v1434h162v-1434h-162z" />
<glyph unicode="&#xcf;" horiz-adv-x="595" d="M27 1561v194h184v-194h-184zM217 0v1434h162v-1434h-162zM387 1561v194h184v-194h-184z" />
<glyph unicode="&#xd0;" horiz-adv-x="1662" d="M111 647v148h153v639h498q166 0 309 -55t242 -150.5t155 -228t56 -283.5q0 -150 -56 -282t-155 -228t-242 -151.5t-309 -55.5h-498v647h-153zM426 150h336q133 0 245 43.5t188 119t118.5 180t42.5 224.5q0 118 -42.5 222t-118.5 180.5t-188 120.5t-245 44h-336v-489h430 v-148h-430v-497z" />
<glyph unicode="&#xd1;" horiz-adv-x="1617" d="M203 0v1434h151l903 -1149v1149h158v-1434h-129l-926 1176v-1176h-157zM473 1569q31 115 76 165t119 50q49 0 145.5 -41t128.5 -41q39 0 61 21.5t46 78.5l96 -26q-31 -115 -76 -165t-119 -50q-49 0 -145.5 40.5t-128.5 40.5q-39 0 -61 -21.5t-46 -78.5z" />
<glyph unicode="&#xd2;" horiz-adv-x="1740" d="M139 717q0 147 54 282t148.5 236.5t233 162t297.5 60.5q160 0 297.5 -60t231.5 -161t147.5 -236t53.5 -284q0 -118 -34 -229t-99 -203.5t-153.5 -162t-204 -108.5t-243.5 -39q-159 0 -297 60t-231.5 161.5t-147 236.5t-53.5 284zM307 717q0 -162 72 -297t202 -215 t291 -80t290 79t200.5 214t71.5 299q0 162 -72.5 297t-202.5 215t-291 80t-290 -79t-200 -214t-71 -299zM565 1782l164 76l195 -297h-127z" />
<glyph unicode="&#xd3;" horiz-adv-x="1740" d="M139 717q0 147 54 282t148.5 236.5t233 162t297.5 60.5q160 0 297.5 -60t231.5 -161t147.5 -236t53.5 -284q0 -118 -34 -229t-99 -203.5t-153.5 -162t-204 -108.5t-243.5 -39q-159 0 -297 60t-231.5 161.5t-147 236.5t-53.5 284zM307 717q0 -162 72 -297t202 -215 t291 -80t290 79t200.5 214t71.5 299q0 162 -72.5 297t-202.5 215t-291 80t-290 -79t-200 -214t-71 -299zM817 1561l195 297l164 -76l-232 -221h-127z" />
<glyph unicode="&#xd4;" horiz-adv-x="1740" d="M139 717q0 147 54 282t148.5 236.5t233 162t297.5 60.5q160 0 297.5 -60t231.5 -161t147.5 -236t53.5 -284q0 -118 -34 -229t-99 -203.5t-153.5 -162t-204 -108.5t-243.5 -39q-159 0 -297 60t-231.5 161.5t-147 236.5t-53.5 284zM307 717q0 -162 72 -297t202 -215 t291 -80t290 79t200.5 214t71.5 299q0 162 -72.5 297t-202.5 215t-291 80t-290 -79t-200 -214t-71 -299zM584 1561l217 268h139l217 -268h-135l-154 137l-153 -137h-131z" />
<glyph unicode="&#xd5;" horiz-adv-x="1740" d="M139 717q0 147 54 282t148.5 236.5t233 162t297.5 60.5q160 0 297.5 -60t231.5 -161t147.5 -236t53.5 -284q0 -118 -34 -229t-99 -203.5t-153.5 -162t-204 -108.5t-243.5 -39q-159 0 -297 60t-231.5 161.5t-147 236.5t-53.5 284zM307 717q0 -162 72 -297t202 -215 t291 -80t290 79t200.5 214t71.5 299q0 162 -72.5 297t-202.5 215t-291 80t-290 -79t-200 -214t-71 -299zM535 1569q31 116 76 165.5t118 49.5q49 0 146 -41t129 -41q39 0 60.5 21.5t45.5 78.5l96 -26q-31 -116 -76 -165.5t-118 -49.5q-49 0 -146 40.5t-129 40.5 q-39 0 -60.5 -21.5t-45.5 -78.5z" />
<glyph unicode="&#xd6;" horiz-adv-x="1740" d="M139 717q0 147 54 282t148.5 236.5t233 162t297.5 60.5q160 0 297.5 -60t231.5 -161t147.5 -236t53.5 -284q0 -118 -34 -229t-99 -203.5t-153.5 -162t-204 -108.5t-243.5 -39q-159 0 -297 60t-231.5 161.5t-147 236.5t-53.5 284zM307 717q0 -162 72 -297t202 -215 t291 -80t290 79t200.5 214t71.5 299q0 162 -72.5 297t-202.5 215t-291 80t-290 -79t-200 -214t-71 -299zM598 1561v194h184v-194h-184zM958 1561v194h185v-194h-185z" />
<glyph unicode="&#xd7;" horiz-adv-x="1310" d="M162 299l387 387l-387 387l104 107l387 -392l387 392l105 -107l-387 -387l387 -387l-105 -106l-387 389l-387 -389z" />
<glyph unicode="&#xd8;" horiz-adv-x="1740" d="M123 -10l203 221q-90 101 -138.5 231t-48.5 275q0 147 54 282t148.5 236.5t233 162t297.5 60.5q262 0 449 -151l127 137h170l-203 -221q90 -101 138.5 -231t48.5 -275q0 -118 -34 -229t-99 -203.5t-153.5 -162t-204 -108.5t-243.5 -39q-258 0 -448 150l-127 -135h-170z M307 717q0 -219 129 -383l781 852q-147 125 -349 125q-161 0 -290 -79.5t-200 -215t-71 -299.5zM524 248q147 -125 348 -125q161 0 290 79.5t200.5 215t71.5 299.5q0 219 -129 383z" />
<glyph unicode="&#xd9;" horiz-adv-x="1554" d="M180 600v834h162v-824q0 -231 115.5 -357t322.5 -126q202 0 317 121.5t115 351.5v834h162v-822q0 -307 -161.5 -471t-436.5 -164q-272 0 -434 162.5t-162 460.5zM494 1772l163 75l195 -297h-127z" />
<glyph unicode="&#xda;" horiz-adv-x="1554" d="M180 600v834h162v-824q0 -231 115.5 -357t322.5 -126q202 0 317 121.5t115 351.5v834h162v-822q0 -307 -161.5 -471t-436.5 -164q-272 0 -434 162.5t-162 460.5zM702 1550l195 297l164 -75l-232 -222h-127z" />
<glyph unicode="&#xdb;" horiz-adv-x="1554" d="M180 600v834h162v-824q0 -231 115.5 -357t322.5 -126q202 0 317 121.5t115 351.5v834h162v-822q0 -307 -161.5 -471t-436.5 -164q-272 0 -434 162.5t-162 460.5zM489 1554l218 269h139l217 -269h-135l-154 138l-153 -138h-132z" />
<glyph unicode="&#xdc;" horiz-adv-x="1554" d="M180 600v834h162v-824q0 -231 115.5 -357t322.5 -126q202 0 317 121.5t115 351.5v834h162v-822q0 -307 -161.5 -471t-436.5 -164q-272 0 -434 162.5t-162 460.5zM504 1554v195h184v-195h-184zM864 1554v195h185v-195h-185z" />
<glyph unicode="&#xdd;" horiz-adv-x="1466" d="M55 1434h197l483 -717l488 717h188l-596 -865v-569h-164v567zM674 1550l194 297l164 -75l-231 -222h-127z" />
<glyph unicode="&#xde;" horiz-adv-x="1378" d="M203 0v1434h162v-246h374q245 0 391 -123.5t146 -335.5q0 -113 -45 -203.5t-122.5 -148.5t-178.5 -88.5t-217 -30.5h-348v-258h-162zM365 406h354q178 0 285.5 88t107.5 233q0 150 -104 230.5t-281 80.5h-362v-632z" />
<glyph unicode="&#xdf;" horiz-adv-x="1269" d="M176 0v1026q0 218 126 350.5t339 132.5q190 0 306 -105.5t116 -266.5q0 -69 -24 -130.5t-65.5 -107t-90 -79.5t-105.5 -58q76 -17 140 -46t118 -72.5t84.5 -108t30.5 -142.5q0 -187 -144.5 -292t-394.5 -105h-14v127q185 5 288 74.5t103 199.5q0 120 -103.5 191 t-287.5 90v117q303 111 303 335q0 106 -74 173t-194 67q-132 0 -215.5 -93.5t-83.5 -248.5v-1028h-158z" />
<glyph unicode="&#xe0;" horiz-adv-x="1185" d="M96 311q0 166 123.5 256t329.5 90q166 0 323 -45v33q0 140 -81.5 213.5t-231.5 73.5q-155 0 -321 -76l-48 129q98 45 187 67.5t198 22.5q226 0 343 -117q110 -110 110 -311v-647h-156v158q-142 -181 -380 -181q-103 0 -191 36.5t-146.5 114t-58.5 183.5zM256 315 q0 -96 77 -153.5t189 -57.5q148 0 250 80.5t102 204.5v98q-153 45 -309 45q-146 0 -227.5 -58.5t-81.5 -158.5zM303 1440l164 76l195 -297h-127z" />
<glyph unicode="&#xe1;" horiz-adv-x="1185" d="M96 311q0 166 123.5 256t329.5 90q166 0 323 -45v33q0 140 -81.5 213.5t-231.5 73.5q-155 0 -321 -76l-48 129q98 45 187 67.5t198 22.5q226 0 343 -117q110 -110 110 -311v-647h-156v158q-142 -181 -380 -181q-103 0 -191 36.5t-146.5 114t-58.5 183.5zM256 315 q0 -96 77 -153.5t189 -57.5q148 0 250 80.5t102 204.5v98q-153 45 -309 45q-146 0 -227.5 -58.5t-81.5 -158.5zM508 1219l194 297l164 -76l-231 -221h-127z" />
<glyph unicode="&#xe2;" horiz-adv-x="1185" d="M96 311q0 166 123.5 256t329.5 90q166 0 323 -45v33q0 140 -81.5 213.5t-231.5 73.5q-155 0 -321 -76l-48 129q98 45 187 67.5t198 22.5q226 0 343 -117q110 -110 110 -311v-647h-156v158q-142 -181 -380 -181q-103 0 -191 36.5t-146.5 114t-58.5 183.5zM256 315 q0 -96 77 -153.5t189 -57.5q148 0 250 80.5t102 204.5v98q-153 45 -309 45q-146 0 -227.5 -58.5t-81.5 -158.5zM309 1219l217 268h140l217 -268h-135l-154 137l-154 -137h-131z" />
<glyph unicode="&#xe3;" horiz-adv-x="1185" d="M96 311q0 166 123.5 256t329.5 90q166 0 323 -45v33q0 140 -81.5 213.5t-231.5 73.5q-155 0 -321 -76l-48 129q98 45 187 67.5t198 22.5q226 0 343 -117q110 -110 110 -311v-647h-156v158q-142 -181 -380 -181q-103 0 -191 36.5t-146.5 114t-58.5 183.5zM256 315 q0 -96 77 -153.5t189 -57.5q148 0 250 80.5t102 204.5v98q-153 45 -309 45q-146 0 -227.5 -58.5t-81.5 -158.5zM262 1227q31 115 76 165t119 50q49 0 145.5 -41t128.5 -41q39 0 61 21.5t46 78.5l96 -26q-31 -115 -76 -165t-119 -50q-49 0 -145.5 40.5t-128.5 40.5 q-39 0 -61 -21.5t-46 -78.5z" />
<glyph unicode="&#xe4;" horiz-adv-x="1185" d="M96 311q0 166 123.5 256t329.5 90q166 0 323 -45v33q0 140 -81.5 213.5t-231.5 73.5q-155 0 -321 -76l-48 129q98 45 187 67.5t198 22.5q226 0 343 -117q110 -110 110 -311v-647h-156v158q-142 -181 -380 -181q-103 0 -191 36.5t-146.5 114t-58.5 183.5zM256 315 q0 -96 77 -153.5t189 -57.5q148 0 250 80.5t102 204.5v98q-153 45 -309 45q-146 0 -227.5 -58.5t-81.5 -158.5zM324 1219v194h184v-194h-184zM684 1219v194h184v-194h-184z" />
<glyph unicode="&#xe5;" horiz-adv-x="1185" d="M96 311q0 166 123.5 256t329.5 90q166 0 323 -45v33q0 140 -81.5 213.5t-231.5 73.5q-155 0 -321 -76l-48 129q98 45 187 67.5t198 22.5q226 0 343 -117q110 -110 110 -311v-647h-156v158q-142 -181 -380 -181q-103 0 -191 36.5t-146.5 114t-58.5 183.5zM256 315 q0 -96 77 -153.5t189 -57.5q148 0 250 80.5t102 204.5v98q-153 45 -309 45q-146 0 -227.5 -58.5t-81.5 -158.5zM383 1421q0 83 64 143t149 60q86 0 149.5 -61t63.5 -146q0 -83 -64 -143t-149 -60q-86 0 -149.5 61t-63.5 146zM469 1417q0 -51 38 -88t89 -37q52 0 89.5 38 t37.5 91q0 51 -37.5 88t-89.5 37q-53 0 -90 -37.5t-37 -91.5z" />
<glyph unicode="&#xe6;" horiz-adv-x="1951" d="M96 311q0 166 122.5 256t322.5 90q140 0 313 -45v33q0 140 -80 213.5t-223 73.5q-147 0 -313 -76l-48 129q199 90 377 90q145 0 246.5 -58.5t140.5 -170.5q64 108 171 171.5t235 63.5q151 0 264 -76t170 -202t57 -283q0 -30 -2 -55h-839q17 -162 122.5 -257t249.5 -95 q192 0 334 149l99 -88q-86 -96 -190 -147.5t-247 -51.5q-127 0 -238 56.5t-182 156.5q-88 -91 -217.5 -151t-257.5 -60q-72 0 -140 21.5t-123.5 62t-89.5 105.5t-34 145zM256 315q0 -96 76.5 -153.5t181.5 -57.5q128 0 213 47t168 142q-37 90 -43 199q-156 40 -295 40 t-220 -59t-81 -158zM1010 592h682q-14 154 -101.5 255t-236.5 101q-135 0 -231 -100.5t-113 -255.5z" />
<glyph unicode="&#xe7;" horiz-adv-x="1169" d="M111 528q0 148 70.5 275t195.5 202.5t276 75.5q140 0 240.5 -50t183.5 -138l-104 -111q-73 76 -148 118t-174 42q-161 0 -270 -120t-109 -294q0 -172 112.5 -291.5t277.5 -119.5q176 0 323 157l100 -94q-84 -93 -178.5 -145.5t-222.5 -59.5l-135 -292l-154 69l160 234 q-194 34 -319 187t-125 355z" />
<glyph unicode="&#xe8;" horiz-adv-x="1212" d="M111 528q0 152 65 278.5t181.5 200.5t260.5 74q152 0 266 -76t171 -202t57 -283q0 -30 -2 -55h-840q17 -162 123 -257t250 -95q192 0 334 149l98 -88q-86 -97 -190 -148t-246 -51q-145 0 -265 68.5t-191.5 196t-71.5 288.5zM270 592h682q-14 154 -101.5 255t-236.5 101 q-135 0 -231 -100.5t-113 -255.5zM334 1440l164 76l194 -297h-127z" />
<glyph unicode="&#xe9;" horiz-adv-x="1212" d="M111 528q0 152 65 278.5t181.5 200.5t260.5 74q152 0 266 -76t171 -202t57 -283q0 -30 -2 -55h-840q17 -162 123 -257t250 -95q192 0 334 149l98 -88q-86 -97 -190 -148t-246 -51q-145 0 -265 68.5t-191.5 196t-71.5 288.5zM270 592h682q-14 154 -101.5 255t-236.5 101 q-135 0 -231 -100.5t-113 -255.5zM520 1219l195 297l164 -76l-232 -221h-127z" />
<glyph unicode="&#xea;" horiz-adv-x="1212" d="M111 528q0 152 65 278.5t181.5 200.5t260.5 74q152 0 266 -76t171 -202t57 -283q0 -30 -2 -55h-840q17 -162 123 -257t250 -95q192 0 334 149l98 -88q-86 -97 -190 -148t-246 -51q-145 0 -265 68.5t-191.5 196t-71.5 288.5zM270 592h682q-14 154 -101.5 255t-236.5 101 q-135 0 -231 -100.5t-113 -255.5zM326 1219l217 268h139l217 -268h-135l-154 137l-153 -137h-131z" />
<glyph unicode="&#xeb;" horiz-adv-x="1212" d="M111 528q0 152 65 278.5t181.5 200.5t260.5 74q152 0 266 -76t171 -202t57 -283q0 -30 -2 -55h-840q17 -162 123 -257t250 -95q192 0 334 149l98 -88q-86 -97 -190 -148t-246 -51q-145 0 -265 68.5t-191.5 196t-71.5 288.5zM270 592h682q-14 154 -101.5 255t-236.5 101 q-135 0 -231 -100.5t-113 -255.5zM340 1219v194h184v-194h-184zM700 1219v194h185v-194h-185z" />
<glyph unicode="&#xec;" horiz-adv-x="538" d="M-23 1440l164 76l195 -297h-127zM190 0v1059h158v-1059h-158z" />
<glyph unicode="&#xed;" horiz-adv-x="538" d="M190 0v1059h158v-1059h-158zM205 1219l194 297l164 -76l-231 -221h-127z" />
<glyph unicode="&#xee;" horiz-adv-x="538" d="M-18 1219l217 268h139l217 -268h-135l-154 137l-153 -137h-131zM190 0v1059h158v-1059h-158z" />
<glyph unicode="&#xef;" horiz-adv-x="538" d="M-4 1219v194h184v-194h-184zM190 0v1059h158v-1059h-158zM356 1219v194h185v-194h-185z" />
<glyph unicode="&#xf0;" horiz-adv-x="1296" d="M111 506q0 107 39 199.5t105 155.5t154.5 98.5t186.5 35.5q100 0 177.5 -29t154.5 -83l-269 377l-262 -130l-73 97l268 125l-103 143h189l53 -80l203 98l72 -96l-209 -96l207 -305q90 -130 135 -247t45 -255q0 -108 -38.5 -205.5t-108 -171.5t-173 -118t-225.5 -44 q-149 0 -271 72t-189.5 193.5t-67.5 265.5zM270 496q0 -99 48 -186t136 -141t195 -54q109 0 195 53t132 141t46 193q0 152 -112 260t-277 108q-164 0 -263.5 -105.5t-99.5 -268.5z" />
<glyph unicode="&#xf1;" horiz-adv-x="1261" d="M176 0v1059h158v-185q126 207 362 207q189 0 297.5 -116t108.5 -308v-657h-158v618q0 149 -77.5 234.5t-215.5 85.5t-227.5 -92t-89.5 -240v-606h-158zM303 1227q31 115 76 165t119 50q49 0 145.5 -41t128.5 -41q39 0 61 21.5t46 78.5l96 -26q-31 -115 -76 -165t-119 -50 q-49 0 -145.5 40.5t-128.5 40.5q-39 0 -61 -21.5t-46 -78.5z" />
<glyph unicode="&#xf2;" horiz-adv-x="1323" d="M111 528q0 149 71 275.5t198.5 202t283.5 75.5q155 0 282 -75t197.5 -201.5t70.5 -276.5q0 -148 -71.5 -275t-199.5 -202.5t-284 -75.5q-155 0 -281.5 75t-196.5 201.5t-70 276.5zM272 528q0 -171 113 -291t279 -120q169 0 279 119t110 292q0 172 -114 293t-280 121 q-169 0 -278 -120.5t-109 -293.5zM367 1440l163 76l195 -297h-127z" />
<glyph unicode="&#xf3;" horiz-adv-x="1323" d="M111 528q0 149 71 275.5t198.5 202t283.5 75.5q155 0 282 -75t197.5 -201.5t70.5 -276.5q0 -148 -71.5 -275t-199.5 -202.5t-284 -75.5q-155 0 -281.5 75t-196.5 201.5t-70 276.5zM272 528q0 -171 113 -291t279 -120q169 0 279 119t110 292q0 172 -114 293t-280 121 q-169 0 -278 -120.5t-109 -293.5zM600 1219l195 297l163 -76l-231 -221h-127z" />
<glyph unicode="&#xf4;" horiz-adv-x="1323" d="M111 528q0 149 71 275.5t198.5 202t283.5 75.5q155 0 282 -75t197.5 -201.5t70.5 -276.5q0 -148 -71.5 -275t-199.5 -202.5t-284 -75.5q-155 0 -281.5 75t-196.5 201.5t-70 276.5zM272 528q0 -171 113 -291t279 -120q169 0 279 119t110 292q0 172 -114 293t-280 121 q-169 0 -278 -120.5t-109 -293.5zM375 1219l217 268h139l217 -268h-135l-154 137l-153 -137h-131z" />
<glyph unicode="&#xf5;" horiz-adv-x="1323" d="M111 528q0 149 71 275.5t198.5 202t283.5 75.5q155 0 282 -75t197.5 -201.5t70.5 -276.5q0 -148 -71.5 -275t-199.5 -202.5t-284 -75.5q-155 0 -281.5 75t-196.5 201.5t-70 276.5zM272 528q0 -171 113 -291t279 -120q169 0 279 119t110 292q0 172 -114 293t-280 121 q-169 0 -278 -120.5t-109 -293.5zM326 1227q31 116 76 165.5t118 49.5q49 0 146 -41t129 -41q39 0 60.5 21.5t45.5 78.5l96 -26q-31 -116 -76 -165.5t-118 -49.5q-49 0 -146 40.5t-129 40.5q-39 0 -60.5 -21.5t-45.5 -78.5z" />
<glyph unicode="&#xf6;" horiz-adv-x="1323" d="M111 528q0 149 71 275.5t198.5 202t283.5 75.5q155 0 282 -75t197.5 -201.5t70.5 -276.5q0 -148 -71.5 -275t-199.5 -202.5t-284 -75.5q-155 0 -281.5 75t-196.5 201.5t-70 276.5zM272 528q0 -171 113 -291t279 -120q169 0 279 119t110 292q0 172 -114 293t-280 121 q-169 0 -278 -120.5t-109 -293.5zM389 1219v194h184v-194h-184zM750 1219v194h184v-194h-184z" />
<glyph unicode="&#xf7;" horiz-adv-x="1310" d="M182 649v152h946v-152h-946zM563 225v211h182v-211h-182zM563 1012v211h182v-211h-182z" />
<glyph unicode="&#xf8;" horiz-adv-x="1323" d="M80 -10l162 174q-131 153 -131 364q0 149 71 275.5t198.5 202t283.5 75.5q191 0 329 -110l92 100h160q-141 -149 -164 -176q133 -152 133 -367q0 -148 -71.5 -275t-199.5 -202.5t-284 -75.5q-185 0 -329 109l-92 -94h-158zM270 528q0 -134 78 -249l549 579 q-107 86 -238 86q-169 0 -279 -120.5t-110 -295.5zM428 199q100 -84 236 -84q170 0 280.5 120t110.5 293q0 139 -80 250z" />
<glyph unicode="&#xf9;" horiz-adv-x="1261" d="M160 401v658h157v-619q0 -149 77 -234t216 -85q137 0 227.5 92.5t90.5 239.5v606h155v-1059h-155v184q-130 -207 -363 -207q-189 0 -297 116t-108 308zM350 1432l164 75l195 -297h-127z" />
<glyph unicode="&#xfa;" horiz-adv-x="1261" d="M160 401v658h157v-619q0 -149 77 -234t216 -85q137 0 227.5 92.5t90.5 239.5v606h155v-1059h-155v184q-130 -207 -363 -207q-189 0 -297 116t-108 308zM545 1210l194 297l164 -75l-231 -222h-127z" />
<glyph unicode="&#xfb;" horiz-adv-x="1261" d="M160 401v658h157v-619q0 -149 77 -234t216 -85q137 0 227.5 92.5t90.5 239.5v606h155v-1059h-155v184q-130 -207 -363 -207q-189 0 -297 116t-108 308zM346 1219l217 268h139l218 -268h-136l-153 137l-154 -137h-131z" />
<glyph unicode="&#xfc;" horiz-adv-x="1261" d="M160 401v658h157v-619q0 -149 77 -234t216 -85q137 0 227.5 92.5t90.5 239.5v606h155v-1059h-155v184q-130 -207 -363 -207q-189 0 -297 116t-108 308zM360 1219v194h185v-194h-185zM721 1219v194h184v-194h-184z" />
<glyph unicode="&#xfd;" horiz-adv-x="1210" d="M70 1059h174l385 -883l340 883h168l-445 -1094q-67 -162 -148.5 -230.5t-203.5 -68.5q-116 0 -225 53l53 125q74 -39 166 -39q72 0 121.5 44t95.5 155zM547 1210l194 297l164 -75l-231 -222h-127z" />
<glyph unicode="&#xfe;" horiz-adv-x="1359" d="M176 -328v1823h158v-649q159 235 405 235q77 0 150.5 -23.5t137.5 -70.5t113 -112t77 -154.5t28 -192.5q0 -126 -43 -231.5t-114 -174.5t-161.5 -107t-187.5 -38q-249 0 -405 226v-531h-158zM328 528q0 -90 32 -167.5t85.5 -129.5t122.5 -82t143 -30q159 0 265.5 111 t106.5 300q0 183 -108.5 296.5t-263.5 113.5q-74 0 -143 -30t-122.5 -83t-85.5 -131t-32 -168z" />
<glyph unicode="&#xff;" horiz-adv-x="1210" d="M70 1059h174l385 -883l340 883h168l-445 -1094q-67 -162 -148.5 -230.5t-203.5 -68.5q-116 0 -225 53l53 125q74 -39 166 -39q72 0 121.5 44t95.5 155zM334 1219v194h184v-194h-184zM694 1219v194h185v-194h-185z" />
<glyph unicode="&#x152;" horiz-adv-x="2316" d="M139 717q0 150 56 282t155 228t242 151.5t309 55.5h1282v-148h-837v-489h745v-148h-745v-502h847v-147h-1292q-166 0 -309 55t-242 150.5t-155 228t-56 283.5zM307 717q0 -118 42.5 -222.5t118.5 -181.5t188 -121.5t245 -44.5h283v1139h-283q-133 0 -245 -43.5t-188 -120 t-118.5 -181t-42.5 -224.5z" />
<glyph unicode="&#x153;" horiz-adv-x="2148" d="M111 528q0 148 71.5 275t198 202.5t278.5 75.5t274.5 -76t188.5 -204q61 129 175.5 204.5t258.5 75.5q151 0 264.5 -76t170.5 -202t57 -283q0 -30 -2 -55h-840q17 -162 123 -257t250 -95q192 0 334 149l98 -88q-84 -96 -188.5 -147.5t-245.5 -51.5q-148 0 -270 76.5 t-187 208.5q-66 -128 -190 -206.5t-277 -78.5q-150 0 -275 74.5t-196 201.5t-71 277zM272 528q0 -171 112.5 -291t277.5 -120q168 0 276.5 119t108.5 292q0 112 -51 207t-141 151t-198 56q-168 0 -276.5 -120.5t-108.5 -293.5zM1206 592h682q-14 154 -101.5 255t-236.5 101 q-135 0 -231 -100.5t-113 -255.5z" />
<glyph unicode="&#x178;" horiz-adv-x="1466" d="M55 1434h197l483 -717l488 717h188l-596 -865v-569h-164v567zM461 1554v195h184v-195h-184zM821 1554v195h185v-195h-185z" />
<glyph unicode="&#x2c6;" d="M225 1219l217 268h140l217 -268h-135l-154 137l-154 -137h-131z" />
<glyph unicode="&#x2dc;" d="M176 1227q31 115 76 165t119 50q49 0 145.5 -41t128.5 -41q39 0 61 21.5t46 78.5l96 -26q-31 -115 -76 -165t-119 -50q-49 0 -145.5 40.5t-128.5 40.5q-39 0 -61 -21.5t-46 -78.5z" />
<glyph unicode="&#x2000;" horiz-adv-x="929" />
<glyph unicode="&#x2001;" horiz-adv-x="1858" />
<glyph unicode="&#x2002;" horiz-adv-x="929" />
<glyph unicode="&#x2003;" horiz-adv-x="1858" />
<glyph unicode="&#x2004;" horiz-adv-x="619" />
<glyph unicode="&#x2005;" horiz-adv-x="464" />
<glyph unicode="&#x2006;" horiz-adv-x="309" />
<glyph unicode="&#x2007;" horiz-adv-x="309" />
<glyph unicode="&#x2008;" horiz-adv-x="232" />
<glyph unicode="&#x2009;" horiz-adv-x="371" />
<glyph unicode="&#x200a;" horiz-adv-x="103" />
<glyph unicode="&#x2010;" horiz-adv-x="835" d="M133 532v166h569v-166h-569z" />
<glyph unicode="&#x2011;" horiz-adv-x="835" d="M133 532v166h569v-166h-569z" />
<glyph unicode="&#x2012;" horiz-adv-x="835" d="M133 532v166h569v-166h-569z" />
<glyph unicode="&#x2013;" horiz-adv-x="1081" d="M133 537v157h815v-157h-815z" />
<glyph unicode="&#x2014;" horiz-adv-x="1839" d="M133 537v157h1573v-157h-1573z" />
<glyph unicode="&#x2018;" horiz-adv-x="501" d="M147 979v184q0 123 54 188.5t172 92.5l24 -72q-72 -26 -104.5 -64.5t-32.5 -97.5v-16h76v-215h-189z" />
<glyph unicode="&#x2019;" horiz-adv-x="501" d="M104 1040q71 27 104.5 64.5t33.5 93.5v21h-74v215h188v-185q0 -123 -54 -188t-173 -92z" />
<glyph unicode="&#x201a;" horiz-adv-x="501" d="M94 -178q71 26 104 63.5t33 94.5v20h-73v215h188v-184q0 -123 -54 -188.5t-173 -92.5z" />
<glyph unicode="&#x201c;" horiz-adv-x="911" d="M147 979v184q0 123 54 188.5t172 92.5l24 -72q-72 -26 -104.5 -64.5t-32.5 -97.5v-16h76v-215h-189zM557 979v184q0 123 53.5 188.5t171.5 92.5l25 -72q-72 -26 -104.5 -64.5t-32.5 -97.5v-16h73v-215h-186z" />
<glyph unicode="&#x201d;" horiz-adv-x="911" d="M104 1040q71 27 104.5 64.5t33.5 93.5v21h-74v215h188v-185q0 -123 -54 -188t-173 -92zM514 1040q71 26 104 63.5t33 94.5v21h-73v215h186v-185q0 -123 -53.5 -188t-171.5 -92z" />
<glyph unicode="&#x201e;" horiz-adv-x="911" d="M94 -178q71 26 104 63.5t33 94.5v20h-73v215h188v-184q0 -123 -54 -188.5t-173 -92.5zM504 -178q71 26 104 63.5t33 94.5v20h-74v215h187v-184q0 -123 -54 -188.5t-172 -92.5z" />
<glyph unicode="&#x2022;" horiz-adv-x="978" d="M221 723q0 109 80 187.5t188 78.5t188.5 -79t80.5 -191q0 -110 -79 -188t-190 -78t-189.5 78.5t-78.5 191.5z" />
<glyph unicode="&#x2026;" horiz-adv-x="1480" d="M158 0v211h182v-211h-182zM649 0v211h182v-211h-182zM1141 0v211h184v-211h-184z" />
<glyph unicode="&#x202f;" horiz-adv-x="371" />
<glyph unicode="&#x2039;" horiz-adv-x="671" d="M98 522v17l332 436l121 -68l-277 -375l277 -378l-121 -70z" />
<glyph unicode="&#x203a;" horiz-adv-x="671" d="M121 152l276 376l-276 377l119 70l331 -436v-17l-331 -438z" />
<glyph unicode="&#x205f;" horiz-adv-x="464" />
<glyph unicode="&#x20ac;" horiz-adv-x="1474" d="M115 485v129h166q-5 41 -5 103q0 67 9 119h-170v127h192q60 221 211 358t352 137q170 0 287 -73t207 -207l-123 -88q-82 115 -167.5 169t-209.5 54q-134 0 -238.5 -96t-152.5 -254h526v-127h-553q-8 -44 -8 -119q0 -37 4 -103h557v-129h-530q46 -167 157 -265.5 t261 -98.5q115 0 199.5 59t164.5 176l117 -82q-94 -142 -209.5 -220.5t-277.5 -78.5q-215 0 -370 139.5t-210 370.5h-186z" />
<glyph unicode="&#x2122;" horiz-adv-x="1413" d="M53 1348v86h496v-86h-203v-545h-90v545h-203zM688 803v631h96l226 -347l223 347h94v-631h-88v483l-225 -342h-13l-223 342v-483h-90z" />
<glyph unicode="&#xe000;" horiz-adv-x="1054" d="M0 0v1055h1055v-1055h-1055z" />
</font>
</defs>
</svg>
